<mxfile host="app.diagrams.net" modified="2023-12-06T15:18:45.700Z" agent="Mozilla/5.0 (Windows NT 10.0; Win64; x64) AppleWebKit/537.36 (KHTML, like Gecko) Chrome/119.0.0.0 Safari/537.36 Edg/119.0.0.0" etag="yhe4daCAeE57J-R_5PI-" version="22.1.5" type="device">
  <diagram name="Page-1" id="37189__VoubaZY4kvSAu">
    <mxGraphModel dx="657" dy="-2663" grid="1" gridSize="10" guides="1" tooltips="1" connect="1" arrows="1" fold="1" page="1" pageScale="1" pageWidth="827" pageHeight="1169" math="0" shadow="0">
      <root>
        <mxCell id="0" />
        <mxCell id="1" parent="0" />
        <mxCell id="CMT0t8vkhaIX2ff3_8DG-1" value="" style="ellipse;fillColor=strokeColor;" vertex="1" parent="1">
          <mxGeometry x="1458" y="4110" width="14" height="14" as="geometry" />
        </mxCell>
        <mxCell id="CMT0t8vkhaIX2ff3_8DG-2" value="Idle" style="swimlane;fontStyle=1;align=center;verticalAlign=middle;startSize=25;container=0;collapsible=0;rounded=1;arcSize=14;dropTarget=0;" vertex="1" parent="1">
          <mxGeometry x="1210" y="4174" width="511" height="610" as="geometry" />
        </mxCell>
        <mxCell id="CMT0t8vkhaIX2ff3_8DG-3" value="" style="ellipse;fillColor=strokeColor;" vertex="1" parent="CMT0t8vkhaIX2ff3_8DG-2">
          <mxGeometry x="188" y="33" width="14" height="14" as="geometry" />
        </mxCell>
        <mxCell id="CMT0t8vkhaIX2ff3_8DG-4" value="UserPreferences" style="rounded=1;absoluteArcSize=1;arcSize=14;whiteSpace=wrap;strokeWidth=2;" vertex="1" parent="CMT0t8vkhaIX2ff3_8DG-2">
          <mxGeometry x="129" y="97" width="132" height="34" as="geometry" />
        </mxCell>
        <mxCell id="CMT0t8vkhaIX2ff3_8DG-5" value="" style="ellipse;shape=endState;fillColor=strokeColor;" vertex="1" parent="CMT0t8vkhaIX2ff3_8DG-2">
          <mxGeometry x="72" y="380" width="14" height="14" as="geometry" />
        </mxCell>
        <mxCell id="CMT0t8vkhaIX2ff3_8DG-6" value="Analysis" style="swimlane;fontStyle=1;align=center;verticalAlign=middle;startSize=25;container=0;collapsible=0;rounded=1;arcSize=14;dropTarget=0;" vertex="1" parent="CMT0t8vkhaIX2ff3_8DG-2">
          <mxGeometry x="136" y="181" width="347" height="411" as="geometry" />
        </mxCell>
        <mxCell id="CMT0t8vkhaIX2ff3_8DG-7" value="" style="ellipse;fillColor=strokeColor;" vertex="1" parent="CMT0t8vkhaIX2ff3_8DG-6">
          <mxGeometry x="158" y="33" width="14" height="14" as="geometry" />
        </mxCell>
        <mxCell id="CMT0t8vkhaIX2ff3_8DG-8" value="SpamDetection" style="rounded=1;absoluteArcSize=1;arcSize=14;whiteSpace=wrap;strokeWidth=2;" vertex="1" parent="CMT0t8vkhaIX2ff3_8DG-6">
          <mxGeometry x="103" y="97" width="123" height="34" as="geometry" />
        </mxCell>
        <mxCell id="CMT0t8vkhaIX2ff3_8DG-9" value="" style="ellipse;fillColor=strokeColor;" vertex="1" parent="CMT0t8vkhaIX2ff3_8DG-6">
          <mxGeometry x="80" y="206" width="14" height="14" as="geometry" />
        </mxCell>
        <mxCell id="CMT0t8vkhaIX2ff3_8DG-10" value="UserFeedback" style="rounded=1;absoluteArcSize=1;arcSize=14;whiteSpace=wrap;strokeWidth=2;" vertex="1" parent="CMT0t8vkhaIX2ff3_8DG-6">
          <mxGeometry x="184" y="270" width="116" height="34" as="geometry" />
        </mxCell>
        <mxCell id="CMT0t8vkhaIX2ff3_8DG-11" value="" style="ellipse;shape=endState;fillColor=strokeColor;" vertex="1" parent="CMT0t8vkhaIX2ff3_8DG-6">
          <mxGeometry x="80" y="354" width="14" height="14" as="geometry" />
        </mxCell>
        <mxCell id="CMT0t8vkhaIX2ff3_8DG-12" value="" style="ellipse;fillColor=strokeColor;" vertex="1" parent="CMT0t8vkhaIX2ff3_8DG-6">
          <mxGeometry x="235" y="206" width="14" height="14" as="geometry" />
        </mxCell>
        <mxCell id="CMT0t8vkhaIX2ff3_8DG-13" value="" style="ellipse;shape=endState;fillColor=strokeColor;" vertex="1" parent="CMT0t8vkhaIX2ff3_8DG-6">
          <mxGeometry x="261" y="354" width="14" height="14" as="geometry" />
        </mxCell>
        <mxCell id="CMT0t8vkhaIX2ff3_8DG-14" value="Spam" style="swimlane;fontStyle=1;align=center;verticalAlign=middle;startSize=25;container=0;collapsible=0;rounded=1;arcSize=14;dropTarget=0;" vertex="1" parent="CMT0t8vkhaIX2ff3_8DG-6">
          <mxGeometry x="45" y="181" width="84" height="212" as="geometry" />
        </mxCell>
        <mxCell id="CMT0t8vkhaIX2ff3_8DG-15" value="NonSpam" style="swimlane;fontStyle=1;align=center;verticalAlign=middle;startSize=25;container=0;collapsible=0;rounded=1;arcSize=14;dropTarget=0;" vertex="1" parent="CMT0t8vkhaIX2ff3_8DG-6">
          <mxGeometry x="149" y="181" width="186" height="212" as="geometry" />
        </mxCell>
        <mxCell id="CMT0t8vkhaIX2ff3_8DG-16" value="" style="curved=1;startArrow=none;;exitX=0.484375;exitY=1;entryX=0.5022865853658537;entryY=0;rounded=0;" edge="1" parent="CMT0t8vkhaIX2ff3_8DG-6" source="CMT0t8vkhaIX2ff3_8DG-7" target="CMT0t8vkhaIX2ff3_8DG-8">
          <mxGeometry relative="1" as="geometry">
            <Array as="points" />
          </mxGeometry>
        </mxCell>
        <mxCell id="CMT0t8vkhaIX2ff3_8DG-17" value="" style="curved=1;startArrow=none;;exitX=0.5235770089285714;exitY=1;entryX=0.002845501077586207;entryY=0.0382482737137212;rounded=0;" edge="1" parent="CMT0t8vkhaIX2ff3_8DG-6" source="CMT0t8vkhaIX2ff3_8DG-9" target="CMT0t8vkhaIX2ff3_8DG-10">
          <mxGeometry relative="1" as="geometry">
            <Array as="points">
              <mxPoint x="87" y="245" />
            </Array>
          </mxGeometry>
        </mxCell>
        <mxCell id="CMT0t8vkhaIX2ff3_8DG-18" value="" style="curved=1;startArrow=none;;exitX=0.37481358720751223;exitY=1;entryX=1.0235770089285714;entryY=0.3649232443484444;rounded=0;" edge="1" parent="CMT0t8vkhaIX2ff3_8DG-6" source="CMT0t8vkhaIX2ff3_8DG-10" target="CMT0t8vkhaIX2ff3_8DG-11">
          <mxGeometry relative="1" as="geometry">
            <Array as="points">
              <mxPoint x="206" y="329" />
            </Array>
          </mxGeometry>
        </mxCell>
        <mxCell id="CMT0t8vkhaIX2ff3_8DG-19" value="" style="curved=1;startArrow=none;;exitX=0.5166015625;exitY=1;entryX=0.5020036368534483;entryY=0;rounded=0;" edge="1" parent="CMT0t8vkhaIX2ff3_8DG-6" source="CMT0t8vkhaIX2ff3_8DG-12" target="CMT0t8vkhaIX2ff3_8DG-10">
          <mxGeometry relative="1" as="geometry">
            <Array as="points" />
          </mxGeometry>
        </mxCell>
        <mxCell id="CMT0t8vkhaIX2ff3_8DG-20" value="" style="curved=1;startArrow=none;;exitX=0.5908110920823071;exitY=1;entryX=0.47739955357142855;entryY=0;rounded=0;" edge="1" parent="CMT0t8vkhaIX2ff3_8DG-6" source="CMT0t8vkhaIX2ff3_8DG-10" target="CMT0t8vkhaIX2ff3_8DG-13">
          <mxGeometry relative="1" as="geometry">
            <Array as="points">
              <mxPoint x="268" y="329" />
            </Array>
          </mxGeometry>
        </mxCell>
        <mxCell id="CMT0t8vkhaIX2ff3_8DG-21" value="" style="curved=1;startArrow=none;;rounded=0;" edge="1" parent="CMT0t8vkhaIX2ff3_8DG-6" source="CMT0t8vkhaIX2ff3_8DG-8" target="CMT0t8vkhaIX2ff3_8DG-14">
          <mxGeometry relative="1" as="geometry">
            <Array as="points" />
          </mxGeometry>
        </mxCell>
        <mxCell id="CMT0t8vkhaIX2ff3_8DG-22" value="" style="curved=1;startArrow=none;;rounded=0;" edge="1" parent="CMT0t8vkhaIX2ff3_8DG-6" source="CMT0t8vkhaIX2ff3_8DG-8" target="CMT0t8vkhaIX2ff3_8DG-15">
          <mxGeometry relative="1" as="geometry">
            <Array as="points" />
          </mxGeometry>
        </mxCell>
        <mxCell id="CMT0t8vkhaIX2ff3_8DG-23" value="" style="curved=1;startArrow=none;;exitX=0.4825962611607143;exitY=1;entryX=0.49815414891098486;entryY=0;rounded=0;" edge="1" parent="CMT0t8vkhaIX2ff3_8DG-2" source="CMT0t8vkhaIX2ff3_8DG-3" target="CMT0t8vkhaIX2ff3_8DG-4">
          <mxGeometry relative="1" as="geometry">
            <Array as="points" />
          </mxGeometry>
        </mxCell>
        <mxCell id="CMT0t8vkhaIX2ff3_8DG-24" value="" style="curved=1;startArrow=none;;exitX=0.14465076617176229;exitY=1;entryX=0.5337611607142857;entryY=-0.03571428571428571;rounded=0;" edge="1" parent="CMT0t8vkhaIX2ff3_8DG-2" source="CMT0t8vkhaIX2ff3_8DG-4" target="CMT0t8vkhaIX2ff3_8DG-5">
          <mxGeometry relative="1" as="geometry">
            <Array as="points">
              <mxPoint x="79" y="156" />
            </Array>
          </mxGeometry>
        </mxCell>
        <mxCell id="CMT0t8vkhaIX2ff3_8DG-25" value="" style="curved=1;startArrow=none;;exitX=0.8516575316502074;exitY=1;entryX=0.501556308537464;entryY=0;rounded=0;" edge="1" parent="CMT0t8vkhaIX2ff3_8DG-2" source="CMT0t8vkhaIX2ff3_8DG-4" target="CMT0t8vkhaIX2ff3_8DG-6">
          <mxGeometry relative="1" as="geometry">
            <Array as="points">
              <mxPoint x="310" y="156" />
            </Array>
          </mxGeometry>
        </mxCell>
        <mxCell id="CMT0t8vkhaIX2ff3_8DG-26" value="" style="curved=1;startArrow=none;;exitX=0.5216936383928571;exitY=1;entryX=0.49961587267612523;entryY=0;rounded=0;" edge="1" parent="1" source="CMT0t8vkhaIX2ff3_8DG-1" target="CMT0t8vkhaIX2ff3_8DG-2">
          <mxGeometry relative="1" as="geometry">
            <Array as="points" />
          </mxGeometry>
        </mxCell>
        <mxCell id="CMT0t8vkhaIX2ff3_8DG-27" value="" style="ellipse;fillColor=strokeColor;" vertex="1" parent="1">
          <mxGeometry x="1458" y="4110" width="14" height="14" as="geometry" />
        </mxCell>
        <mxCell id="CMT0t8vkhaIX2ff3_8DG-28" value="Idle" style="swimlane;fontStyle=1;align=center;verticalAlign=middle;startSize=25;container=0;collapsible=0;rounded=1;arcSize=14;dropTarget=0;" vertex="1" parent="1">
          <mxGeometry x="1210" y="4174" width="511" height="610" as="geometry" />
        </mxCell>
        <mxCell id="CMT0t8vkhaIX2ff3_8DG-29" value="" style="ellipse;fillColor=strokeColor;" vertex="1" parent="CMT0t8vkhaIX2ff3_8DG-28">
          <mxGeometry x="188" y="33" width="14" height="14" as="geometry" />
        </mxCell>
        <mxCell id="CMT0t8vkhaIX2ff3_8DG-30" value="UserPreferences" style="rounded=1;absoluteArcSize=1;arcSize=14;whiteSpace=wrap;strokeWidth=2;" vertex="1" parent="CMT0t8vkhaIX2ff3_8DG-28">
          <mxGeometry x="129" y="97" width="132" height="34" as="geometry" />
        </mxCell>
        <mxCell id="CMT0t8vkhaIX2ff3_8DG-31" value="" style="ellipse;shape=endState;fillColor=strokeColor;" vertex="1" parent="CMT0t8vkhaIX2ff3_8DG-28">
          <mxGeometry x="72" y="380" width="14" height="14" as="geometry" />
        </mxCell>
        <mxCell id="CMT0t8vkhaIX2ff3_8DG-32" value="Analysis" style="swimlane;fontStyle=1;align=center;verticalAlign=middle;startSize=25;container=0;collapsible=0;rounded=1;arcSize=14;dropTarget=0;" vertex="1" parent="CMT0t8vkhaIX2ff3_8DG-28">
          <mxGeometry x="136" y="181" width="347" height="411" as="geometry" />
        </mxCell>
        <mxCell id="CMT0t8vkhaIX2ff3_8DG-33" value="" style="ellipse;fillColor=strokeColor;" vertex="1" parent="CMT0t8vkhaIX2ff3_8DG-32">
          <mxGeometry x="158" y="33" width="14" height="14" as="geometry" />
        </mxCell>
        <mxCell id="CMT0t8vkhaIX2ff3_8DG-34" value="SpamDetection" style="rounded=1;absoluteArcSize=1;arcSize=14;whiteSpace=wrap;strokeWidth=2;" vertex="1" parent="CMT0t8vkhaIX2ff3_8DG-32">
          <mxGeometry x="103" y="97" width="123" height="34" as="geometry" />
        </mxCell>
        <mxCell id="CMT0t8vkhaIX2ff3_8DG-35" value="" style="ellipse;fillColor=strokeColor;" vertex="1" parent="CMT0t8vkhaIX2ff3_8DG-32">
          <mxGeometry x="80" y="206" width="14" height="14" as="geometry" />
        </mxCell>
        <mxCell id="CMT0t8vkhaIX2ff3_8DG-36" value="UserFeedback" style="rounded=1;absoluteArcSize=1;arcSize=14;whiteSpace=wrap;strokeWidth=2;" vertex="1" parent="CMT0t8vkhaIX2ff3_8DG-32">
          <mxGeometry x="184" y="270" width="116" height="34" as="geometry" />
        </mxCell>
        <mxCell id="CMT0t8vkhaIX2ff3_8DG-37" value="" style="ellipse;shape=endState;fillColor=strokeColor;" vertex="1" parent="CMT0t8vkhaIX2ff3_8DG-32">
          <mxGeometry x="80" y="354" width="14" height="14" as="geometry" />
        </mxCell>
        <mxCell id="CMT0t8vkhaIX2ff3_8DG-38" value="" style="ellipse;fillColor=strokeColor;" vertex="1" parent="CMT0t8vkhaIX2ff3_8DG-32">
          <mxGeometry x="235" y="206" width="14" height="14" as="geometry" />
        </mxCell>
        <mxCell id="CMT0t8vkhaIX2ff3_8DG-39" value="" style="ellipse;shape=endState;fillColor=strokeColor;" vertex="1" parent="CMT0t8vkhaIX2ff3_8DG-32">
          <mxGeometry x="261" y="354" width="14" height="14" as="geometry" />
        </mxCell>
        <mxCell id="CMT0t8vkhaIX2ff3_8DG-40" value="Spam" style="swimlane;fontStyle=1;align=center;verticalAlign=middle;startSize=25;container=0;collapsible=0;rounded=1;arcSize=14;dropTarget=0;" vertex="1" parent="CMT0t8vkhaIX2ff3_8DG-32">
          <mxGeometry x="45" y="181" width="84" height="212" as="geometry" />
        </mxCell>
        <mxCell id="CMT0t8vkhaIX2ff3_8DG-41" value="NonSpam" style="swimlane;fontStyle=1;align=center;verticalAlign=middle;startSize=25;container=0;collapsible=0;rounded=1;arcSize=14;dropTarget=0;" vertex="1" parent="CMT0t8vkhaIX2ff3_8DG-32">
          <mxGeometry x="149" y="181" width="186" height="212" as="geometry" />
        </mxCell>
        <mxCell id="CMT0t8vkhaIX2ff3_8DG-42" value="" style="curved=1;startArrow=none;;exitX=0.484375;exitY=1;entryX=0.5022865853658537;entryY=0;rounded=0;" edge="1" parent="CMT0t8vkhaIX2ff3_8DG-32" source="CMT0t8vkhaIX2ff3_8DG-33" target="CMT0t8vkhaIX2ff3_8DG-34">
          <mxGeometry relative="1" as="geometry">
            <Array as="points" />
          </mxGeometry>
        </mxCell>
        <mxCell id="CMT0t8vkhaIX2ff3_8DG-43" value="" style="curved=1;startArrow=none;;exitX=0.5235770089285714;exitY=1;entryX=0.002845501077586207;entryY=0.0382482737137212;rounded=0;" edge="1" parent="CMT0t8vkhaIX2ff3_8DG-32" source="CMT0t8vkhaIX2ff3_8DG-35" target="CMT0t8vkhaIX2ff3_8DG-36">
          <mxGeometry relative="1" as="geometry">
            <Array as="points">
              <mxPoint x="87" y="245" />
            </Array>
          </mxGeometry>
        </mxCell>
        <mxCell id="CMT0t8vkhaIX2ff3_8DG-44" value="" style="curved=1;startArrow=none;;exitX=0.37481358720751223;exitY=1;entryX=1.0235770089285714;entryY=0.3649232443484444;rounded=0;" edge="1" parent="CMT0t8vkhaIX2ff3_8DG-32" source="CMT0t8vkhaIX2ff3_8DG-36" target="CMT0t8vkhaIX2ff3_8DG-37">
          <mxGeometry relative="1" as="geometry">
            <Array as="points">
              <mxPoint x="206" y="329" />
            </Array>
          </mxGeometry>
        </mxCell>
        <mxCell id="CMT0t8vkhaIX2ff3_8DG-45" value="" style="curved=1;startArrow=none;;exitX=0.5166015625;exitY=1;entryX=0.5020036368534483;entryY=0;rounded=0;" edge="1" parent="CMT0t8vkhaIX2ff3_8DG-32" source="CMT0t8vkhaIX2ff3_8DG-38" target="CMT0t8vkhaIX2ff3_8DG-36">
          <mxGeometry relative="1" as="geometry">
            <Array as="points" />
          </mxGeometry>
        </mxCell>
        <mxCell id="CMT0t8vkhaIX2ff3_8DG-46" value="" style="curved=1;startArrow=none;;exitX=0.5908110920823071;exitY=1;entryX=0.47739955357142855;entryY=0;rounded=0;" edge="1" parent="CMT0t8vkhaIX2ff3_8DG-32" source="CMT0t8vkhaIX2ff3_8DG-36" target="CMT0t8vkhaIX2ff3_8DG-39">
          <mxGeometry relative="1" as="geometry">
            <Array as="points">
              <mxPoint x="268" y="329" />
            </Array>
          </mxGeometry>
        </mxCell>
        <mxCell id="CMT0t8vkhaIX2ff3_8DG-47" value="" style="curved=1;startArrow=none;;rounded=0;" edge="1" parent="CMT0t8vkhaIX2ff3_8DG-32" source="CMT0t8vkhaIX2ff3_8DG-34" target="CMT0t8vkhaIX2ff3_8DG-40">
          <mxGeometry relative="1" as="geometry">
            <Array as="points" />
          </mxGeometry>
        </mxCell>
        <mxCell id="CMT0t8vkhaIX2ff3_8DG-48" value="" style="curved=1;startArrow=none;;rounded=0;" edge="1" parent="CMT0t8vkhaIX2ff3_8DG-32" source="CMT0t8vkhaIX2ff3_8DG-34" target="CMT0t8vkhaIX2ff3_8DG-41">
          <mxGeometry relative="1" as="geometry">
            <Array as="points" />
          </mxGeometry>
        </mxCell>
        <mxCell id="CMT0t8vkhaIX2ff3_8DG-49" value="" style="curved=1;startArrow=none;;exitX=0.4825962611607143;exitY=1;entryX=0.49815414891098486;entryY=0;rounded=0;" edge="1" parent="CMT0t8vkhaIX2ff3_8DG-28" source="CMT0t8vkhaIX2ff3_8DG-29" target="CMT0t8vkhaIX2ff3_8DG-30">
          <mxGeometry relative="1" as="geometry">
            <Array as="points" />
          </mxGeometry>
        </mxCell>
        <mxCell id="CMT0t8vkhaIX2ff3_8DG-50" value="" style="curved=1;startArrow=none;;exitX=0.14465076617176229;exitY=1;entryX=0.5337611607142857;entryY=-0.03571428571428571;rounded=0;" edge="1" parent="CMT0t8vkhaIX2ff3_8DG-28" source="CMT0t8vkhaIX2ff3_8DG-30" target="CMT0t8vkhaIX2ff3_8DG-31">
          <mxGeometry relative="1" as="geometry">
            <Array as="points">
              <mxPoint x="79" y="156" />
            </Array>
          </mxGeometry>
        </mxCell>
        <mxCell id="CMT0t8vkhaIX2ff3_8DG-51" value="" style="curved=1;startArrow=none;;exitX=0.8516575316502074;exitY=1;entryX=0.501556308537464;entryY=0;rounded=0;" edge="1" parent="CMT0t8vkhaIX2ff3_8DG-28" source="CMT0t8vkhaIX2ff3_8DG-30" target="CMT0t8vkhaIX2ff3_8DG-32">
          <mxGeometry relative="1" as="geometry">
            <Array as="points">
              <mxPoint x="310" y="156" />
            </Array>
          </mxGeometry>
        </mxCell>
        <mxCell id="CMT0t8vkhaIX2ff3_8DG-52" value="" style="curved=1;startArrow=none;;exitX=0.5216936383928571;exitY=1;entryX=0.49961587267612523;entryY=0;rounded=0;" edge="1" parent="1" source="CMT0t8vkhaIX2ff3_8DG-27" target="CMT0t8vkhaIX2ff3_8DG-28">
          <mxGeometry relative="1" as="geometry">
            <Array as="points" />
          </mxGeometry>
        </mxCell>
        <mxCell id="CMT0t8vkhaIX2ff3_8DG-53" value="" style="ellipse;fillColor=strokeColor;" vertex="1" parent="1">
          <mxGeometry x="1458" y="4110" width="14" height="14" as="geometry" />
        </mxCell>
        <mxCell id="CMT0t8vkhaIX2ff3_8DG-54" value="Idle" style="swimlane;fontStyle=1;align=center;verticalAlign=middle;startSize=25;container=0;collapsible=0;rounded=1;arcSize=14;dropTarget=0;" vertex="1" parent="1">
          <mxGeometry x="1210" y="4174" width="511" height="610" as="geometry" />
        </mxCell>
        <mxCell id="CMT0t8vkhaIX2ff3_8DG-55" value="" style="ellipse;fillColor=strokeColor;" vertex="1" parent="CMT0t8vkhaIX2ff3_8DG-54">
          <mxGeometry x="188" y="33" width="14" height="14" as="geometry" />
        </mxCell>
        <mxCell id="CMT0t8vkhaIX2ff3_8DG-56" value="UserPreferences" style="rounded=1;absoluteArcSize=1;arcSize=14;whiteSpace=wrap;strokeWidth=2;" vertex="1" parent="CMT0t8vkhaIX2ff3_8DG-54">
          <mxGeometry x="129" y="97" width="132" height="34" as="geometry" />
        </mxCell>
        <mxCell id="CMT0t8vkhaIX2ff3_8DG-57" value="" style="ellipse;shape=endState;fillColor=strokeColor;" vertex="1" parent="CMT0t8vkhaIX2ff3_8DG-54">
          <mxGeometry x="72" y="380" width="14" height="14" as="geometry" />
        </mxCell>
        <mxCell id="CMT0t8vkhaIX2ff3_8DG-58" value="Analysis" style="swimlane;fontStyle=1;align=center;verticalAlign=middle;startSize=25;container=0;collapsible=0;rounded=1;arcSize=14;dropTarget=0;" vertex="1" parent="CMT0t8vkhaIX2ff3_8DG-54">
          <mxGeometry x="136" y="181" width="347" height="411" as="geometry" />
        </mxCell>
        <mxCell id="CMT0t8vkhaIX2ff3_8DG-59" value="" style="ellipse;fillColor=strokeColor;" vertex="1" parent="CMT0t8vkhaIX2ff3_8DG-58">
          <mxGeometry x="158" y="33" width="14" height="14" as="geometry" />
        </mxCell>
        <mxCell id="CMT0t8vkhaIX2ff3_8DG-60" value="SpamDetection" style="rounded=1;absoluteArcSize=1;arcSize=14;whiteSpace=wrap;strokeWidth=2;" vertex="1" parent="CMT0t8vkhaIX2ff3_8DG-58">
          <mxGeometry x="103" y="97" width="123" height="34" as="geometry" />
        </mxCell>
        <mxCell id="CMT0t8vkhaIX2ff3_8DG-61" value="" style="ellipse;fillColor=strokeColor;" vertex="1" parent="CMT0t8vkhaIX2ff3_8DG-58">
          <mxGeometry x="80" y="206" width="14" height="14" as="geometry" />
        </mxCell>
        <mxCell id="CMT0t8vkhaIX2ff3_8DG-62" value="UserFeedback" style="rounded=1;absoluteArcSize=1;arcSize=14;whiteSpace=wrap;strokeWidth=2;" vertex="1" parent="CMT0t8vkhaIX2ff3_8DG-58">
          <mxGeometry x="184" y="270" width="116" height="34" as="geometry" />
        </mxCell>
        <mxCell id="CMT0t8vkhaIX2ff3_8DG-63" value="" style="ellipse;shape=endState;fillColor=strokeColor;" vertex="1" parent="CMT0t8vkhaIX2ff3_8DG-58">
          <mxGeometry x="80" y="354" width="14" height="14" as="geometry" />
        </mxCell>
        <mxCell id="CMT0t8vkhaIX2ff3_8DG-64" value="" style="ellipse;fillColor=strokeColor;" vertex="1" parent="CMT0t8vkhaIX2ff3_8DG-58">
          <mxGeometry x="235" y="206" width="14" height="14" as="geometry" />
        </mxCell>
        <mxCell id="CMT0t8vkhaIX2ff3_8DG-65" value="" style="ellipse;shape=endState;fillColor=strokeColor;" vertex="1" parent="CMT0t8vkhaIX2ff3_8DG-58">
          <mxGeometry x="261" y="354" width="14" height="14" as="geometry" />
        </mxCell>
        <mxCell id="CMT0t8vkhaIX2ff3_8DG-66" value="Spam" style="swimlane;fontStyle=1;align=center;verticalAlign=middle;startSize=25;container=0;collapsible=0;rounded=1;arcSize=14;dropTarget=0;" vertex="1" parent="CMT0t8vkhaIX2ff3_8DG-58">
          <mxGeometry x="45" y="181" width="84" height="212" as="geometry" />
        </mxCell>
        <mxCell id="CMT0t8vkhaIX2ff3_8DG-67" value="NonSpam" style="swimlane;fontStyle=1;align=center;verticalAlign=middle;startSize=25;container=0;collapsible=0;rounded=1;arcSize=14;dropTarget=0;" vertex="1" parent="CMT0t8vkhaIX2ff3_8DG-58">
          <mxGeometry x="149" y="181" width="186" height="212" as="geometry" />
        </mxCell>
        <mxCell id="CMT0t8vkhaIX2ff3_8DG-68" value="" style="curved=1;startArrow=none;;exitX=0.484375;exitY=1;entryX=0.5022865853658537;entryY=0;rounded=0;" edge="1" parent="CMT0t8vkhaIX2ff3_8DG-58" source="CMT0t8vkhaIX2ff3_8DG-59" target="CMT0t8vkhaIX2ff3_8DG-60">
          <mxGeometry relative="1" as="geometry">
            <Array as="points" />
          </mxGeometry>
        </mxCell>
        <mxCell id="CMT0t8vkhaIX2ff3_8DG-69" value="" style="curved=1;startArrow=none;;exitX=0.5235770089285714;exitY=1;entryX=0.002845501077586207;entryY=0.0382482737137212;rounded=0;" edge="1" parent="CMT0t8vkhaIX2ff3_8DG-58" source="CMT0t8vkhaIX2ff3_8DG-61" target="CMT0t8vkhaIX2ff3_8DG-62">
          <mxGeometry relative="1" as="geometry">
            <Array as="points">
              <mxPoint x="87" y="245" />
            </Array>
          </mxGeometry>
        </mxCell>
        <mxCell id="CMT0t8vkhaIX2ff3_8DG-70" value="" style="curved=1;startArrow=none;;exitX=0.37481358720751223;exitY=1;entryX=1.0235770089285714;entryY=0.3649232443484444;rounded=0;" edge="1" parent="CMT0t8vkhaIX2ff3_8DG-58" source="CMT0t8vkhaIX2ff3_8DG-62" target="CMT0t8vkhaIX2ff3_8DG-63">
          <mxGeometry relative="1" as="geometry">
            <Array as="points">
              <mxPoint x="206" y="329" />
            </Array>
          </mxGeometry>
        </mxCell>
        <mxCell id="CMT0t8vkhaIX2ff3_8DG-71" value="" style="curved=1;startArrow=none;;exitX=0.5166015625;exitY=1;entryX=0.5020036368534483;entryY=0;rounded=0;" edge="1" parent="CMT0t8vkhaIX2ff3_8DG-58" source="CMT0t8vkhaIX2ff3_8DG-64" target="CMT0t8vkhaIX2ff3_8DG-62">
          <mxGeometry relative="1" as="geometry">
            <Array as="points" />
          </mxGeometry>
        </mxCell>
        <mxCell id="CMT0t8vkhaIX2ff3_8DG-72" value="" style="curved=1;startArrow=none;;exitX=0.5908110920823071;exitY=1;entryX=0.47739955357142855;entryY=0;rounded=0;" edge="1" parent="CMT0t8vkhaIX2ff3_8DG-58" source="CMT0t8vkhaIX2ff3_8DG-62" target="CMT0t8vkhaIX2ff3_8DG-65">
          <mxGeometry relative="1" as="geometry">
            <Array as="points">
              <mxPoint x="268" y="329" />
            </Array>
          </mxGeometry>
        </mxCell>
        <mxCell id="CMT0t8vkhaIX2ff3_8DG-73" value="" style="curved=1;startArrow=none;;rounded=0;" edge="1" parent="CMT0t8vkhaIX2ff3_8DG-58" source="CMT0t8vkhaIX2ff3_8DG-60" target="CMT0t8vkhaIX2ff3_8DG-66">
          <mxGeometry relative="1" as="geometry">
            <Array as="points" />
          </mxGeometry>
        </mxCell>
        <mxCell id="CMT0t8vkhaIX2ff3_8DG-74" value="" style="curved=1;startArrow=none;;rounded=0;" edge="1" parent="CMT0t8vkhaIX2ff3_8DG-58" source="CMT0t8vkhaIX2ff3_8DG-60" target="CMT0t8vkhaIX2ff3_8DG-67">
          <mxGeometry relative="1" as="geometry">
            <Array as="points" />
          </mxGeometry>
        </mxCell>
        <mxCell id="CMT0t8vkhaIX2ff3_8DG-75" value="" style="curved=1;startArrow=none;;exitX=0.4825962611607143;exitY=1;entryX=0.49815414891098486;entryY=0;rounded=0;" edge="1" parent="CMT0t8vkhaIX2ff3_8DG-54" source="CMT0t8vkhaIX2ff3_8DG-55" target="CMT0t8vkhaIX2ff3_8DG-56">
          <mxGeometry relative="1" as="geometry">
            <Array as="points" />
          </mxGeometry>
        </mxCell>
        <mxCell id="CMT0t8vkhaIX2ff3_8DG-76" value="" style="curved=1;startArrow=none;;exitX=0.14465076617176229;exitY=1;entryX=0.5337611607142857;entryY=-0.03571428571428571;rounded=0;" edge="1" parent="CMT0t8vkhaIX2ff3_8DG-54" source="CMT0t8vkhaIX2ff3_8DG-56" target="CMT0t8vkhaIX2ff3_8DG-57">
          <mxGeometry relative="1" as="geometry">
            <Array as="points">
              <mxPoint x="79" y="156" />
            </Array>
          </mxGeometry>
        </mxCell>
        <mxCell id="CMT0t8vkhaIX2ff3_8DG-77" value="" style="curved=1;startArrow=none;;exitX=0.8516575316502074;exitY=1;entryX=0.501556308537464;entryY=0;rounded=0;" edge="1" parent="CMT0t8vkhaIX2ff3_8DG-54" source="CMT0t8vkhaIX2ff3_8DG-56" target="CMT0t8vkhaIX2ff3_8DG-58">
          <mxGeometry relative="1" as="geometry">
            <Array as="points">
              <mxPoint x="310" y="156" />
            </Array>
          </mxGeometry>
        </mxCell>
        <mxCell id="CMT0t8vkhaIX2ff3_8DG-78" value="" style="curved=1;startArrow=none;;exitX=0.5216936383928571;exitY=1;entryX=0.49961587267612523;entryY=0;rounded=0;" edge="1" parent="1" source="CMT0t8vkhaIX2ff3_8DG-53" target="CMT0t8vkhaIX2ff3_8DG-54">
          <mxGeometry relative="1" as="geometry">
            <Array as="points" />
          </mxGeometry>
        </mxCell>
      </root>
    </mxGraphModel>
  </diagram>
</mxfile>
